# xmcd
#
# Track frame offsets:
#	182
#	18170
#	32757
#	46332
#	61320
#	80845
#	95607
#	111282
#	123920
#	139982
#	156732
#	169870
#	185832
#	198382
#
# Disc length: 2854 seconds
#
# Revision: 8
# Processed by: cddbd v1.5.2PL0 Copyright (c) Steve Scherf et al.
# Submitted via: audiograbber 1.83.01
#
DISCID=cb0b240e
DTITLE=Truck Stop - Country Stars
DYEAR=1998
DGENRE=Country
TTITLE0=Meine Tür steht immer offen  1977
TTITLE1=Studio Nr.9  1977
TTITLE2=Das Mädchen wird schöner mit jedem Glas Bier  1977
TTITLE3=Easy Rider  1981
TTITLE4=Nein danke, ich rauch' nicht mehr  1981
TTITLE5=Keiner meiner Freunde hat mehr Zeit  1982
TTITLE6=Ich steh' auf Jeans und Country-Music  1982
TTITLE7=Wieder mal zu spät  1981
TTITLE8=Der Roadie von der Country-Band  1981
TTITLE9=Hey Kleiner  1977
TTITLE10=Die Frau mit dem Gurt  1977
TTITLE11=Ich möcht' so gern Dave Dudley hör'n  1977
TTITLE12=Der wilde wilde Westen  1980
TTITLE13=Zehntausend Geiger  1979
EXTD=
EXTT0=
EXTT1=
EXTT2=
EXTT3=
EXTT4=
EXTT5=
EXTT6=
EXTT7=
EXTT8=
EXTT9=
EXTT10=
EXTT11=
EXTT12=
EXTT13=
PLAYORDER=
